<?xml version="1.0" standalone="no"?>
<!DOCTYPE svg PUBLIC "-//W3C//DTD SVG 20010904//EN"
 "http://www.w3.org/TR/2001/REC-SVG-20010904/DTD/svg10.dtd">
<svg version="1.0" xmlns="http://www.w3.org/2000/svg"
 width="4000.000000pt" height="4000.000000pt" viewBox="0 0 4000.000000 4000.000000"
 preserveAspectRatio="xMidYMid meet">
<metadata>
Created by potrace 1.14, written by Peter Selinger 2001-2017
</metadata>
<g transform="translate(0.000000,4000.000000) scale(0.100000,-0.100000)"
fill="#000000" stroke="none">
<path d="M19448 39995 c-2 -2 -86 -6 -188 -9 -319 -11 -664 -31 -880 -51 -25
-3 -81 -7 -125 -11 -171 -14 -282 -24 -315 -29 -14 -2 -78 -9 -143 -15 -66 -6
-128 -13 -140 -16 -12 -2 -49 -6 -82 -9 -33 -3 -67 -8 -75 -10 -8 -2 -42 -7
-76 -10 -33 -3 -71 -7 -85 -9 -13 -3 -46 -7 -72 -11 -27 -4 -57 -8 -66 -10
-10 -2 -42 -6 -72 -10 -30 -3 -65 -8 -79 -10 -14 -2 -70 -11 -125 -20 -211
-33 -412 -67 -450 -75 -22 -5 -60 -12 -85 -15 -25 -4 -75 -13 -112 -21 -37 -7
-82 -16 -99 -19 -31 -6 -455 -93 -494 -101 -11 -3 -31 -7 -45 -10 -13 -3 -63
-14 -110 -25 -47 -12 -94 -22 -105 -25 -11 -2 -85 -20 -165 -39 -80 -20 -156
-38 -170 -41 -14 -3 -38 -9 -55 -14 -16 -5 -109 -30 -205 -56 -96 -25 -267
-73 -380 -105 -113 -33 -212 -62 -220 -64 -8 -2 -16 -4 -17 -5 -2 -2 -6 -3
-10 -4 -30 -8 -100 -28 -111 -31 -7 -3 -14 -5 -17 -5 -3 0 -29 -9 -57 -19 -47
-17 -186 -61 -213 -67 -5 -2 -71 -24 -145 -50 -74 -25 -141 -47 -147 -47 -7 0
-13 -3 -13 -7 0 -4 -6 -7 -12 -7 -15 -1 -268 -90 -448 -158 -69 -26 -161 -60
-205 -77 -307 -116 -870 -352 -1160 -488 -49 -23 -135 -62 -190 -88 -123 -57
-720 -355 -830 -415 -44 -23 -118 -63 -165 -89 -170 -91 -242 -132 -515 -288
-135 -77 -455 -270 -555 -334 -19 -13 -66 -42 -105 -66 -95 -60 -599 -392
-605 -399 -3 -3 -13 -10 -22 -16 -31 -18 -264 -182 -303 -213 -6 -5 -24 -17
-40 -28 -17 -10 -32 -21 -35 -24 -3 -3 -21 -17 -40 -30 -176 -120 -743 -559
-1005 -778 -11 -9 -45 -37 -75 -62 -30 -25 -57 -47 -60 -50 -4 -4 -86 -74
-160 -136 -61 -51 -338 -296 -391 -345 -20 -19 -78 -72 -130 -119 -306 -279
-876 -849 -1174 -1175 -45 -50 -169 -187 -185 -205 -60 -69 -137 -155 -145
-164 -34 -36 -356 -416 -415 -489 -8 -10 -25 -31 -38 -45 -12 -15 -42 -52 -65
-82 -23 -30 -44 -57 -47 -60 -3 -3 -23 -27 -45 -55 -21 -27 -42 -52 -45 -55
-4 -3 -25 -30 -47 -60 -23 -30 -69 -91 -103 -135 -168 -217 -270 -356 -472
-642 -81 -114 -151 -212 -155 -218 -4 -5 -25 -37 -47 -69 -21 -33 -43 -64 -48
-70 -9 -12 -67 -97 -83 -124 -6 -9 -44 -69 -86 -132 -294 -448 -613 -983 -844
-1415 -26 -49 -51 -94 -55 -100 -8 -11 -181 -345 -271 -525 -59 -118 -171
-352 -216 -450 -14 -30 -43 -93 -65 -140 -59 -126 -200 -450 -269 -618 -33
-81 -65 -158 -71 -172 -6 -14 -12 -27 -13 -30 -1 -3 -5 -14 -10 -25 -40 -99
-91 -231 -130 -335 -25 -69 -53 -141 -60 -160 -25 -62 -66 -175 -70 -190 -2
-8 -15 -45 -29 -82 -39 -103 -208 -612 -266 -803 -165 -542 -361 -1294 -434
-1665 -2 -14 -12 -58 -20 -97 -9 -40 -18 -87 -21 -105 -3 -18 -8 -40 -10 -48
-3 -8 -18 -85 -34 -170 -33 -170 -32 -167 -61 -325 -11 -60 -22 -119 -24 -130
-2 -11 -7 -47 -11 -80 -3 -32 -8 -62 -10 -65 -2 -3 -6 -26 -9 -51 -3 -24 -8
-53 -10 -65 -2 -12 -7 -45 -11 -74 -4 -29 -8 -61 -10 -72 -2 -10 -11 -71 -20
-136 -9 -64 -18 -128 -20 -142 -2 -14 -7 -50 -10 -80 -6 -54 -9 -79 -19 -151
-3 -20 -8 -62 -11 -95 -3 -32 -8 -70 -10 -84 -3 -14 -7 -56 -10 -95 -4 -38 -8
-81 -10 -95 -4 -28 -11 -105 -29 -315 -4 -38 -8 -95 -11 -125 -3 -30 -7 -89
-10 -130 -3 -41 -7 -102 -10 -135 -4 -57 -10 -157 -20 -340 -27 -496 -27
-1643 0 -2025 2 -30 6 -109 10 -175 6 -120 8 -144 19 -310 9 -125 19 -243 31
-355 1 -14 6 -61 9 -105 4 -44 9 -93 11 -110 3 -16 7 -57 10 -89 3 -33 7 -71
9 -85 3 -14 7 -57 11 -94 3 -37 8 -76 10 -85 1 -9 6 -44 9 -77 4 -33 9 -71 11
-85 3 -14 7 -47 10 -75 3 -27 7 -61 10 -75 2 -14 7 -45 10 -70 3 -25 7 -56 10
-70 3 -14 7 -45 10 -70 5 -45 10 -77 20 -135 3 -16 8 -48 11 -70 3 -22 7 -51
10 -65 2 -14 7 -41 10 -60 3 -19 17 -98 30 -175 14 -77 31 -178 39 -225 8 -47
19 -103 25 -125 5 -22 12 -56 15 -75 2 -19 7 -44 9 -55 2 -11 15 -74 29 -140
14 -66 28 -131 31 -145 10 -51 25 -117 31 -140 1 -3 5 -23 9 -45 5 -22 15 -67
23 -100 8 -33 17 -71 20 -85 29 -160 247 -965 359 -1325 37 -119 65 -208 71
-225 4 -8 7 -19 8 -25 10 -40 109 -332 115 -340 5 -5 8 -12 8 -15 -1 -26 240
-689 277 -760 8 -16 15 -32 15 -35 -1 -7 32 -95 56 -150 10 -22 19 -44 20 -50
4 -16 63 -157 80 -189 8 -16 14 -33 14 -37 0 -5 11 -32 24 -61 13 -29 44 -100
69 -158 42 -99 59 -137 123 -277 15 -32 39 -85 54 -119 15 -33 45 -98 66 -145
51 -109 371 -751 427 -854 23 -44 65 -120 92 -170 194 -360 465 -824 645
-1105 14 -22 43 -68 64 -102 118 -189 554 -835 603 -893 4 -5 41 -56 82 -113
69 -98 330 -447 375 -503 12 -14 32 -40 46 -58 30 -40 154 -198 178 -226 10
-11 46 -56 82 -100 64 -80 319 -385 330 -395 3 -3 45 -52 94 -109 49 -57 99
-114 110 -126 12 -13 44 -49 72 -81 57 -65 62 -70 208 -229 194 -211 263 -282
566 -585 338 -338 450 -445 704 -675 49 -44 101 -91 116 -105 51 -47 95 -85
200 -175 58 -50 107 -92 110 -95 12 -13 321 -271 390 -325 41 -33 77 -63 80
-66 13 -15 445 -350 620 -480 202 -150 235 -174 435 -316 163 -115 723 -488
758 -504 15 -7 27 -16 27 -21 0 -4 4 -8 9 -8 5 0 44 -23 85 -50 42 -28 77 -50
79 -50 3 0 69 -40 148 -89 147 -90 456 -271 564 -331 33 -18 76 -42 95 -53
382 -215 1038 -548 1415 -717 28 -12 79 -36 115 -52 36 -16 144 -64 240 -105
96 -41 193 -83 215 -93 75 -33 490 -198 655 -260 91 -34 172 -64 180 -67 8 -3
20 -7 25 -9 6 -2 65 -23 132 -48 261 -96 895 -303 1108 -361 28 -8 106 -30
175 -50 177 -51 660 -178 720 -190 8 -2 33 -8 55 -13 22 -6 51 -13 65 -16 14
-3 75 -16 135 -31 256 -60 815 -172 1040 -209 17 -3 71 -12 120 -21 106 -18
319 -51 390 -60 28 -4 61 -8 75 -11 14 -3 41 -7 60 -9 19 -3 49 -7 65 -9 17
-3 53 -8 80 -11 28 -3 61 -8 75 -10 14 -3 52 -7 85 -11 33 -3 69 -8 80 -10 11
-2 49 -6 85 -9 36 -4 72 -8 80 -10 8 -2 51 -7 95 -11 44 -3 87 -8 96 -9 8 -2
51 -6 95 -10 43 -4 95 -8 114 -10 19 -2 69 -6 110 -10 41 -3 95 -8 120 -10 25
-3 81 -7 125 -10 44 -3 107 -7 140 -10 447 -31 740 -40 1340 -40 440 0 792 7
1020 20 28 1 109 6 180 10 72 4 148 8 170 10 22 2 83 6 135 10 52 3 113 8 135
10 76 6 200 17 240 21 22 2 67 6 100 9 33 3 96 10 140 15 44 5 112 12 150 16
39 3 79 8 90 10 11 2 47 6 80 9 33 3 67 8 75 10 8 2 43 7 77 10 34 3 70 8 81
10 10 2 43 6 73 10 30 3 65 8 79 10 56 9 158 24 200 30 42 6 56 9 127 19 16 3
42 7 58 10 55 9 210 35 245 40 33 5 50 9 110 21 14 3 43 7 65 11 22 3 47 7 55
9 8 2 29 7 45 10 17 2 41 7 55 10 14 3 37 7 51 10 14 3 61 12 105 20 43 9 90
18 104 21 14 2 36 7 50 10 14 3 36 8 50 11 14 2 86 18 160 34 74 17 146 33
160 35 14 3 43 10 65 16 22 5 49 12 60 14 34 6 184 43 305 74 209 54 275 71
290 75 8 2 49 13 90 23 101 27 510 146 613 178 318 100 614 198 626 208 8 6
15 9 15 7 1 -2 12 -1 26 4 39 11 412 144 435 154 11 5 83 33 160 62 77 28 156
58 175 66 19 8 44 18 55 22 11 5 43 18 70 29 28 11 84 34 125 51 215 87 587
248 750 324 41 19 100 46 130 60 221 101 815 397 974 487 17 9 72 38 121 65
310 167 712 402 1072 628 59 37 117 73 128 80 35 21 640 421 650 430 6 4 62
44 125 89 101 71 428 308 455 330 6 4 111 85 235 180 124 94 227 174 230 178
3 3 50 42 105 85 55 44 143 115 196 160 53 44 118 98 145 120 57 47 288 247
358 310 6 6 52 46 101 90 50 44 95 85 101 90 162 148 225 206 308 285 133 125
678 671 786 786 197 210 267 286 375 408 39 44 75 84 80 90 52 59 98 111 140
160 28 33 55 64 62 71 6 6 35 41 64 76 29 35 55 66 58 69 4 3 26 30 51 60 58
71 70 86 116 141 22 25 53 63 69 84 17 21 35 43 40 49 6 6 33 40 60 76 28 36
52 67 55 70 3 3 21 25 40 50 19 25 37 47 40 50 24 23 416 550 548 737 130 184
311 448 337 491 6 9 49 76 96 147 47 72 96 148 109 170 13 22 28 45 33 50 28
34 396 644 485 805 14 25 42 75 63 112 22 36 39 68 39 71 0 2 22 42 48 88 74
129 248 459 355 674 439 883 786 1720 1087 2625 56 169 142 434 146 455 1 6
21 71 44 145 22 74 49 167 60 205 11 39 40 144 65 235 57 204 215 845 239 970
3 14 17 79 31 145 14 66 35 167 46 225 12 58 23 114 25 125 2 11 11 58 20 105
9 47 18 94 20 105 5 23 70 402 79 460 7 42 14 91 20 140 2 17 6 41 9 55 4 23
12 73 21 145 2 17 7 50 10 75 4 25 8 60 11 78 2 17 6 47 8 65 3 17 10 73 16
122 6 50 12 106 15 125 2 19 7 62 10 95 4 33 8 74 10 90 2 17 7 62 10 100 3
39 8 81 10 95 4 24 8 76 20 220 3 36 7 85 10 110 2 25 7 90 11 145 4 55 8 116
10 135 2 41 14 243 19 345 27 515 27 1662 0 2015 -3 36 -7 112 -10 170 -6 109
-12 205 -19 300 -12 162 -18 239 -21 270 -2 19 -7 69 -10 110 -3 41 -8 89 -10
105 -2 17 -7 59 -10 95 -6 63 -10 100 -20 185 -3 22 -7 61 -10 88 -11 102 -16
143 -20 172 -2 17 -7 53 -10 80 -4 28 -8 61 -10 75 -2 14 -7 48 -10 75 -4 28
-9 61 -11 75 -14 94 -41 280 -49 335 -3 22 -8 51 -11 65 -3 13 -8 40 -10 60
-2 19 -7 46 -9 60 -3 14 -9 52 -15 85 -5 33 -12 71 -15 85 -3 14 -10 52 -15
85 -6 33 -15 83 -20 110 -17 83 -100 498 -106 525 -3 14 -7 36 -10 50 -3 14
-7 33 -10 42 -3 10 -7 28 -10 40 -24 129 -128 554 -206 843 -16 61 -31 117
-33 125 -3 8 -14 49 -25 90 -12 41 -25 89 -29 105 -11 37 -77 260 -126 420
-106 350 -313 943 -442 1265 -19 47 -35 90 -36 95 -5 19 -60 160 -70 180 -6
11 -12 25 -13 30 -2 12 -55 138 -159 381 -76 177 -95 219 -151 342 -19 40 -34
74 -34 77 0 10 -296 622 -377 780 -90 176 -176 336 -298 560 -345 630 -851
1432 -1270 2010 -73 101 -369 500 -374 505 -3 3 -35 43 -70 90 -36 47 -76 99
-90 116 -31 38 -46 56 -91 114 -19 25 -37 47 -40 50 -3 3 -35 41 -70 85 -74
92 -320 388 -329 395 -3 3 -46 52 -96 110 -49 58 -99 114 -110 126 -11 11 -33
36 -50 56 -55 65 -236 262 -415 452 -135 144 -673 680 -820 817 -168 157 -305
282 -372 340 -10 9 -50 45 -88 79 -76 68 -90 80 -169 148 -77 67 -83 73 -137
117 -26 22 -52 45 -58 50 -6 6 -31 26 -56 46 -25 20 -55 45 -66 55 -74 65
-379 308 -549 439 -71 55 -134 103 -140 108 -5 4 -35 26 -65 48 -30 23 -66 50
-80 60 -44 34 -282 208 -350 255 -36 25 -110 77 -165 115 -55 39 -138 96 -185
126 -47 31 -87 59 -90 62 -3 4 -106 72 -230 152 -196 127 -268 172 -375 239
-49 31 -189 116 -214 130 -14 8 -75 45 -136 81 -150 90 -286 169 -370 214 -38
21 -82 47 -97 57 -16 11 -28 16 -28 12 0 -4 -8 0 -17 8 -10 9 -67 41 -128 73
-60 32 -114 61 -120 65 -28 20 -541 280 -760 386 -151 72 -196 93 -340 159
-33 15 -89 41 -125 57 -244 112 -762 325 -1160 478 -487 187 -1239 428 -1805
581 -128 34 -568 145 -605 153 -14 3 -74 16 -135 31 -181 42 -515 112 -770
161 -22 4 -47 9 -55 11 -8 1 -28 5 -45 8 -16 2 -55 9 -85 14 -115 21 -347 60
-385 66 -22 3 -67 10 -100 15 -33 5 -76 12 -95 14 -20 2 -83 11 -140 20 -58 8
-127 18 -155 21 -27 4 -61 8 -75 10 -76 10 -110 15 -155 20 -27 3 -66 7 -85
10 -73 8 -156 18 -185 20 -96 8 -179 17 -194 20 -20 4 -113 12 -226 20 -44 3
-96 8 -115 10 -19 3 -75 7 -125 10 -49 3 -115 8 -145 10 -30 2 -102 7 -160 10
-58 3 -148 8 -200 11 -52 3 -135 8 -185 10 -110 5 -1352 13 -1357 9z"/>
</g>
</svg>
